- 
http://www.Speed.Cd 
       
http://www.Speed.Cd       the fast  and The Hottest Private Tracker on the net

Please Seed back to make the speed Faster!!!

and don't forget to visit      ...... http://www.Speed.Cd..........
-[img]http://img695.imageshack.us/img695/1640/battlelosangelesbluray.jpg[/img]

[color=blue][size=5][b]Battle.Los.Angeles.2011.BDRip.XVID.AC3.HQ.Hive-CM8[/b][/size][/color]


[b]Thx Hive


CM8 Doing It Right The First Time :D


Source Bluray

Video: 720x304 @bitrate 1800 2pass
Audio: DTS to AC3 5.1 @448
Sample: yes included[/b]


[url]http://www.imdb.com/title/tt1217613/[/url]


General
Complete name                    : Battle.Los.Angeles.2011.BDRip.XVID.AC3.HQ.Hive-CM8.avi
Format                           : AVI
Format/Info                      : Audio Video Interleave
File size                        : 1.83 GiB
Duration                         : 1h 56mn
Overall bit rate                 : 2 257 Kbps
Writing application              : Nandub v1.0rc2
Writing library                  : Nandub build 1853/release

Video
ID                               : 0
Format                           : MPEG-4 Visual
Format profile                   : Advanced Simple@L5
Format settings, BVOP            : 2
Format settings, QPel            : Yes
Format settings, GMC             : No warppoints
Format settings, Matrix          : Default (H.263)
Muxing mode                      : Packed bitstream
Codec ID                         : XVID
Codec ID/Hint                    : XviD
Duration                         : 1h 56mn
Bit rate                         : 1 800 Kbps
Width                            : 720 pixels
Height                           : 304 pixels
Display aspect ratio             : 2.40:1
Frame rate                       : 23.976 fps
Color space                      : YUV
Chroma subsampling               : 4:2:0
Bit depth                        : 8 bits
Scan type                        : Progressive
Compression mode                 : Lossy
Bits/(Pixel*Frame)               : 0.343
Stream size                      : 1.46 GiB (80%)
Writing library                  : XviD 1.2.1 (UTC 2008-12-04)

Audio
ID                               : 1
Format                           : AC-3
Format/Info                      : Audio Coding 3
Mode extension                   : CM (complete main)
Codec ID                         : 2000
Duration                         : 1h 56mn
Bit rate mode                    : Constant
Bit rate                         : 448 Kbps
Channel(s)                       : 6 channels
Channel positions                : Front: L C R, Side: L R, LFE
Sampling rate                    : 48.0 KHz
Bit depth                        : 16 bits
Compression mode                 : Lossy
Stream size                      : 372 MiB (20%)
Alignment                        : Split accross interleaves
Interleave, duration             : 42 ms (1.00 video frame)
Interleave, preload duration     : 500 ms



Aaron Eckhart	... 	Sgt. Michael Nantz
Ramon Rodriguez	... 	2nd Lt. William Martinez
Cory Hardrict	... 	Cpl. Jason Lockett
Gino Anthony Pesi	... 	Cpl. Nick Stavrou
Ne-Yo	... 	Cpl. Kevin Harris
James Hiroyuki Liao	... 	LCpl. Steven Mottola
Bridget Moynahan	... 	Michele
Noel Fisher	... 	Pfc. Shaun Lenihan


A Marine Staff Sergeant who has just had his retirement approved
goes back into the line of duty in order to assist a 2nd Lieutenant
and his platoon as they fight to reclaim the city of Los Angeles
from alien invaders. 
 

[img]http://img204.imageshack.us/img204/7820/bbaa.png[/img]
[img]http://img835.imageshack.us/img835/6726/23342967.png[/img]
[img]http://img801.imageshack.us/img801/9057/bbabaa.png[/img]
[img]http://img51.imageshack.us/img51/385/bbababaa.png[/img]
[img]http://img849.imageshack.us/img849/2305/bbababbaaa.png[/img]
[img]http://img832.imageshack.us/img832/1181/bbababbabaaa.png[/img]





ViSiON,LUSi,SANTi,MAGNET,THC,T0XiCiNK,LKRG,IMAGiNE,WBZ,FLAWL3SS,NOVA
Vik,OneTwo,Rapeseed,D2U,SAFC,goldadvance,MEMORY100,KaN1vE,Unevano,Pinnz,Wayne,Mr Hive
and all P2P groups 
Great Work Guys :D

CM8@hushmail.com